<svg id="Ebene_1" data-name="Ebene 1" xmlns="http://www.w3.org/2000/svg" viewBox="0 0 2000 1293.5"><defs><style>.cls-1{fill:#3d8dcc;}.cls-2{fill:#fff;}</style></defs><title>SkyStatusLogo</title><path class="cls-1" d="M1711,899.82a316.29,316.29,0,0,0,4.89-53.53c0-170.65-138.42-309.07-309.07-309.07a308.81,308.81,0,0,0-105.92,19.08c-100.43-156-275.37-259.61-474.93-259.61-312.06,0-565.09,253-565.09,565.09,0,14.67,1,29.13,2.12,43.53-151,38-263,174.29-263,336.89,0,192.17,155.81,348,347.71,348H1652c192.17,0,348-155.81,348-348C2000,1070.25,1874.95,927.81,1711,899.82Z" transform="translate(0 -296.69)"/><path class="cls-2" d="M740,1366q-69-4-121-11v-99q123,12,214,12,54,0,84-4.5t47-15.5a46.84,46.84,0,0,0,21-28.5q5-18.49,5-52.5,0-37-4.5-54t-19-25q-14.51-8-48.5-11l-164-19q-63-7-96.5-30.5a118.51,118.51,0,0,1-46-62.5Q599,926,599,866q0-85,30.5-128.5T713,680q53-14,138-14,58,0,119,5.5t99,13.5v96q-37-6-92-9.5T873,768q-53,0-84,4t-48,14q-18,10-23,26.5T713,861q0,36,5,51.5T738.5,935Q754,942,789,946l165,19q52,5,83.5,20.5T1085,1039q18,40,18,122,0,91-29,136.5t-78,59Q947,1370,866,1370,809,1370,740,1366Z" transform="translate(0 -296.69)"/></svg>
